  0
SECTION
  2
HEADER
  9
$ACADVER
  1
AC1014
  9
$ACADMAINTVER
 70
     9
  9
$DWGCODEPAGE
  3
ANSI_1252
  9
$INSBASE
 10
0.0
 20
0.0
 30
0.0
  9
$EXTMIN
 10
0.0
 20
0.0
 30
0.0
  9
$EXTMAX
 10
15.999968
 20
16.499967
 30
0.0
  9
$LIMMIN
 10
0.0
 20
0.0
  9
$LIMMAX
 10
12.0
 20
9.0
  9
$ORTHOMODE
 70
     0
  9
$REGENMODE
 70
     1
  9
$FILLMODE
 70
     1
  9
$QTEXTMODE
 70
     0
  9
$MIRRTEXT
 70
     0
  9
$DRAGMODE
 70
     2
  9
$LTSCALE
 40
1.0
  9
$OSMODE
 70
   511
  9
$ATTMODE
 70
     1
  9
$TEXTSIZE
 40
0.2
  9
$TRACEWID
 40
0.05
  9
$TEXTSTYLE
  7
STANDARD
  9
$CLAYER
  8
0
  9
$CELTYPE
  6
BYLAYER
  9
$CECOLOR
 62
   256
  9
$CELTSCALE
 40
1.0
  9
$DELOBJ
 70
     1
  9
$DISPSILH
 70
     0
  9
$DIMSCALE
 40
1.0
  9
$DIMASZ
 40
0.18
  9
$DIMEXO
 40
0.0625
  9
$DIMDLI
 40
0.38
  9
$DIMRND
 40
0.0
  9
$DIMDLE
 40
0.0
  9
$DIMEXE
 40
0.18
  9
$DIMTP
 40
0.0
  9
$DIMTM
 40
0.0
  9
$DIMTXT
 40
0.18
  9
$DIMCEN
 40
0.09
  9
$DIMTSZ
 40
0.0
  9
$DIMTOL
 70
     0
  9
$DIMLIM
 70
     0
  9
$DIMTIH
 70
     1
  9
$DIMTOH
 70
     1
  9
$DIMSE1
 70
     0
  9
$DIMSE2
 70
     0
  9
$DIMTAD
 70
     0
  9
$DIMZIN
 70
     0
  9
$DIMBLK
  1

  9
$DIMASO
 70
     1
  9
$DIMSHO
 70
     1
  9
$DIMPOST
  1

  9
$DIMAPOST
  1

  9
$DIMALT
 70
     0
  9
$DIMALTD
 70
     2
  9
$DIMALTF
 40
25.4
  9
$DIMLFAC
 40
1.0
  9
$DIMTOFL
 70
     0
  9
$DIMTVP
 40
0.0
  9
$DIMTIX
 70
     0
  9
$DIMSOXD
 70
     0
  9
$DIMSAH
 70
     0
  9
$DIMBLK1
  1

  9
$DIMBLK2
  1

  9
$DIMSTYLE
  2
STANDARD
  9
$DIMCLRD
 70
     0
  9
$DIMCLRE
 70
     0
  9
$DIMCLRT
 70
     0
  9
$DIMTFAC
 40
1.0
  9
$DIMGAP
 40
0.09
  9
$DIMJUST
 70
     0
  9
$DIMSD1
 70
     0
  9
$DIMSD2
 70
     0
  9
$DIMTOLJ
 70
     1
  9
$DIMTZIN
 70
     0
  9
$DIMALTZ
 70
     0
  9
$DIMALTTZ
 70
     0
  9
$DIMFIT
 70
     3
  9
$DIMUPT
 70
     0
  9
$DIMUNIT
 70
     2
  9
$DIMDEC
 70
     4
  9
$DIMTDEC
 70
     4
  9
$DIMALTU
 70
     2
  9
$DIMALTTD
 70
     2
  9
$DIMTXSTY
  7
STANDARD
  9
$DIMAUNIT
 70
     0
  9
$LUNITS
 70
     2
  9
$LUPREC
 70
     4
  9
$SKETCHINC
 40
0.1
  9
$FILLETRAD
 40
0.125
  9
$AUNITS
 70
     0
  9
$AUPREC
 70
     0
  9
$MENU
  1
.
  9
$ELEVATION
 40
0.0
  9
$PELEVATION
 40
0.0
  9
$THICKNESS
 40
0.0
  9
$LIMCHECK
 70
     0
  9
$CHAMFERA
 40
0.0
  9
$CHAMFERB
 40
0.0
  9
$CHAMFERC
 40
0.0
  9
$CHAMFERD
 40
0.0
  9
$SKPOLY
 70
     0
  9
$TDCREATE
 40
2452642.855050937
  9
$TDUPDATE
 40
2457668.598901771
  9
$TDINDWG
 40
0.2858253819
  9
$TDUSRTIMER
 40
2457668.762485903
  9
$USRTIMER
 70
     1
  9
$ANGBASE
 50
0.0
  9
$ANGDIR
 70
     0
  9
$PDMODE
 70
     0
  9
$PDSIZE
 40
0.0
  9
$PLINEWID
 40
0.0
  9
$COORDS
 70
     1
  9
$SPLFRAME
 70
     0
  9
$SPLINETYPE
 70
     6
  9
$SPLINESEGS
 70
     8
  9
$ATTDIA
 70
     0
  9
$ATTREQ
 70
     1
  9
$HANDLING
 70
     1
  9
$HANDSEED
  5
1205
  9
$SURFTAB1
 70
     6
  9
$SURFTAB2
 70
     6
  9
$SURFTYPE
 70
     6
  9
$SURFU
 70
     6
  9
$SURFV
 70
     6
  9
$UCSNAME
  2

  9
$UCSORG
 10
0.0
 20
0.0
 30
0.0
  9
$UCSXDIR
 10
1.0
 20
0.0
 30
0.0
  9
$UCSYDIR
 10
0.0
 20
1.0
 30
0.0
  9
$PUCSNAME
  2

  9
$PUCSORG
 10
0.0
 20
0.0
 30
0.0
  9
$PUCSXDIR
 10
1.0
 20
0.0
 30
0.0
  9
$PUCSYDIR
 10
0.0
 20
1.0
 30
0.0
  9
$USERI1
 70
     0
  9
$USERI2
 70
     0
  9
$USERI3
 70
     0
  9
$USERI4
 70
     0
  9
$USERI5
 70
     0
  9
$USERR1
 40
0.0
  9
$USERR2
 40
0.0
  9
$USERR3
 40
0.0
  9
$USERR4
 40
0.0
  9
$USERR5
 40
0.0
  9
$WORLDVIEW
 70
     1
  9
$SHADEDGE
 70
     3
  9
$SHADEDIF
 70
    70
  9
$TILEMODE
 70
     1
  9
$MAXACTVP
 70
    64
  9
$PINSBASE
 10
0.0
 20
0.0
 30
0.0
  9
$PLIMCHECK
 70
     0
  9
$PEXTMIN
 10
0.0
 20
0.0
 30
0.0
  9
$PEXTMAX
 10
0.0
 20
0.0
 30
0.0
  9
$PLIMMIN
 10
0.0
 20
0.0
  9
$PLIMMAX
 10
0.0
 20
0.0
  9
$UNITMODE
 70
     0
  9
$VISRETAIN
 70
     1
  9
$PLINEGEN
 70
     0
  9
$PSLTSCALE
 70
     1
  9
$TREEDEPTH
 70
  3020
  9
$PICKSTYLE
 70
     1
  9
$CMLSTYLE
  2
STANDARD
  9
$CMLJUST
 70
     0
  9
$CMLSCALE
 40
1.0
  9
$PROXYGRAPHICS
 70
     1
  9
$MEASUREMENT
 70
     0
  0
ENDSEC
  0
SECTION
  2
CLASSES
  0
CLASS
  1
ACDBDICTIONARYWDFLT
  2
AcDbDictionaryWithDefault
  3
ObjectDBX Classes
 90
        0
280
     0
281
     0
  0
CLASS
  1
ACDBPLACEHOLDER
  2
AcDbPlaceHolder
  3
ObjectDBX Classes
 90
        0
280
     0
281
     0
  0
CLASS
  1
LAYOUT
  2
AcDbLayout
  3
ObjectDBX Classes
 90
        0
280
     0
281
     0
  0
CLASS
  1
DICTIONARYVAR
  2
AcDbDictionaryVar
  3
ObjectDBX Classes
 90
        0
280
     0
281
     0
  0
CLASS
  1
TABLESTYLE
  2
AcDbTableStyle
  3
ObjectDBX Classes
 90
     4095
280
     0
281
     0
  0
CLASS
  1
MATERIAL
  2
AcDbMaterial
  3
ObjectDBX Classes
 90
     1153
280
     0
281
     0
  0
CLASS
  1
VISUALSTYLE
  2
AcDbVisualStyle
  3
ObjectDBX Classes
 90
     4095
280
     0
281
     0
  0
CLASS
  1
SCALE
  2
AcDbScale
  3
ObjectDBX Classes
 90
     1153
280
     0
281
     0
  0
CLASS
  1
CELLSTYLEMAP
  2
AcDbCellStyleMap
  3
ObjectDBX Classes
 90
     1152
280
     0
281
     0
  0
CLASS
  1
RASTERVARIABLES
  2
AcDbRasterVariables
  3
ISM
 90
        0
280
     0
281
     0
  0
CLASS
  1
SUN
  2
AcDbSun
  3
SCENEOE
 90
     1153
280
     0
281
     0
  0
CLASS
  1
DIMASSOC
  2
AcDbDimAssoc
  3
"AcDbDimAssoc|Product Desc:     AcDim ARX App For Dimension|Company:          Autodesk, Inc.|WEB Address:      www.autodesk.com"
 90
        0
280
     0
281
     0
  0
CLASS
  1
MLEADERSTYLE
  2
AcDbMLeaderStyle
  3
ACDB_MLEADERSTYLE_CLASS
 90
     4095
280
     0
281
     0
  0
CLASS
  1
XRECORD
  2
AcDbXrecord
  3
ObjectDBX Classes
 90
        0
280
     0
281
     0
  0
CLASS
  1
LWPOLYLINE
  2
AcDbPolyline
  3
ObjectDBX Classes
 90
        0
280
     0
281
     1
  0
CLASS
  1
HATCH
  2
AcDbHatch
  3
ObjectDBX Classes
 90
        0
280
     0
281
     1
  0
ENDSEC
  0
SECTION
  2
TABLES
  0
TABLE
  2
VPORT
  5
8
330
0
100
AcDbSymbolTable
 70
     1
  0
VPORT
  5
94
330
8
100
AcDbSymbolTableRecord
100
AcDbViewportTableRecord
  2
*ACTIVE
 70
     0
 10
0.0
 20
0.0
 11
1.0
 21
1.0
 12
37.59839284945595
 22
27.60939311801592
 13
0.0
 23
0.0
 14
0.025
 24
0.025
 15
0.1
 25
0.1
 16
0.0
 26
0.0
 36
1.0
 17
-27.66959356598031
 27
-19.53870295786204
 37
0.0
 40
18.39313360278224
 41
2.166666666666667
 42
50.0
 43
0.0
 44
0.0
 50
0.0
 51
0.0
 71
    16
 72
  1000
 73
     1
 74
     3
 75
     0
 76
     1
 77
     0
 78
     0
  0
ENDTAB
  0
TABLE
  2
LTYPE
  5
5
330
0
100
AcDbSymbolTable
 70
     2
  0
LTYPE
  5
14
330
5
100
AcDbSymbolTableRecord
100
AcDbLinetypeTableRecord
  2
BYBLOCK
 70
     0
  3

 72
    65
 73
     0
 40
0.0
  0
LTYPE
  5
15
330
5
100
AcDbSymbolTableRecord
100
AcDbLinetypeTableRecord
  2
BYLAYER
 70
     0
  3

 72
    65
 73
     0
 40
0.0
  0
LTYPE
  5
16
330
5
100
AcDbSymbolTableRecord
100
AcDbLinetypeTableRecord
  2
CONTINUOUS
 70
     0
  3
Solid line
 72
    65
 73
     0
 40
0.0
  0
LTYPE
  5
8E0
330
5
100
AcDbSymbolTableRecord
100
AcDbLinetypeTableRecord
  2
DASHED
 70
     0
  3
 Dashed __ __ __ __ __ __ __ __ __ __ __ __ __ 
 72
    65
 73
     2
 40
0.375
 49
0.25
 74
     0
 49
-0.125
 74
     0
  0
ENDTAB
  0
TABLE
  2
LAYER
  5
2
330
0
100
AcDbSymbolTable
 70
     2
  0
LAYER
  5
10
330
2
100
AcDbSymbolTableRecord
100
AcDbLayerTableRecord
  2
0
 70
     0
 62
     7
  6
CONTINUOUS
  0
LAYER
  5
D4D
330
2
100
AcDbSymbolTableRecord
100
AcDbLayerTableRecord
  2
DEFPOINTS
 70
     0
 62
     7
  6
CONTINUOUS
  0
ENDTAB
  0
TABLE
  2
STYLE
  5
3
330
0
100
AcDbSymbolTable
 70
     1
  0
STYLE
  5
11
330
3
100
AcDbSymbolTableRecord
100
AcDbTextStyleTableRecord
  2
STANDARD
 70
     0
 40
0.0
 41
1.0
 50
0.0
 71
     0
 42
0.2
  3
arial.ttf
  4

1001
ACAD
1000
Arial
1071
        0
  0
ENDTAB
  0
TABLE
  2
VIEW
  5
6
330
0
100
AcDbSymbolTable
 70
     0
  0
ENDTAB
  0
TABLE
  2
UCS
  5
7
330
0
100
AcDbSymbolTable
 70
     0
  0
ENDTAB
  0
TABLE
  2
APPID
  5
9
330
0
100
AcDbSymbolTable
 70
     2
  0
APPID
  5
12
330
9
100
AcDbSymbolTableRecord
100
AcDbRegAppTableRecord
  2
ACAD
 70
     0
  0
APPID
  5
D4C
330
9
100
AcDbSymbolTableRecord
100
AcDbRegAppTableRecord
  2
ACAD_DSTYLE_DIMRADIAL_EXTE
 70
     0
  0
ENDTAB
  0
TABLE
  2
DIMSTYLE
  5
A
330
0
100
AcDbSymbolTable
 70
     1
  0
DIMSTYLE
105
27
330
A
100
AcDbSymbolTableRecord
100
AcDbDimStyleTableRecord
  2
STANDARD
 70
     0
  3

  4

  5

  6

  7

 40
1.0
 41
0.18
 42
0.0625
 43
0.38
 44
0.18
 45
0.0
 46
0.0
 47
0.0
 48
0.0
140
0.18
141
0.09
142
0.0
143
25.4
144
1.0
145
0.0
146
1.0
147
0.09
 71
     0
 72
     0
 73
     1
 74
     1
 75
     0
 76
     0
 77
     0
 78
     0
170
     0
171
     2
172
     0
173
     0
174
     0
175
     0
176
     0
177
     0
178
     0
270
     2
271
     4
272
     4
273
     2
274
     2
340
11
275
     0
280
     0
281
     0
282
     0
283
     1
284
     0
285
     0
286
     0
287
     3
288
     0
  0
ENDTAB
  0
TABLE
  2
BLOCK_RECORD
  5
1
330
0
100
AcDbSymbolTable
 70
     1
  0
BLOCK_RECORD
  5
1F
330
1
100
AcDbSymbolTableRecord
100
AcDbBlockTableRecord
  2
*MODEL_SPACE
  0
BLOCK_RECORD
  5
58
330
1
100
AcDbSymbolTableRecord
100
AcDbBlockTableRecord
  2
*PAPER_SPACE
  0
BLOCK_RECORD
  5
5D
330
1
100
AcDbSymbolTableRecord
100
AcDbBlockTableRecord
  2
*PAPER_SPACE0
  0
ENDTAB
  0
ENDSEC
  0
SECTION
  2
BLOCKS
  0
BLOCK
  5
20
330
1F
100
AcDbEntity
  8
0
100
AcDbBlockBegin
  2
*MODEL_SPACE
 70
     0
 10
0.0
 20
0.0
 30
0.0
  3
*MODEL_SPACE
  1

  0
ENDBLK
  5
21
330
1F
100
AcDbEntity
  8
0
100
AcDbBlockEnd
  0
BLOCK
  5
5A
330
58
100
AcDbEntity
 67
     1
  8
0
100
AcDbBlockBegin
  2
*PAPER_SPACE
 70
     0
 10
0.0
 20
0.0
 30
0.0
  3
*PAPER_SPACE
  1

  0
ENDBLK
  5
5B
330
58
100
AcDbEntity
 67
     1
  8
0
100
AcDbBlockEnd
  0
BLOCK
  5
5F
330
5D
100
AcDbEntity
  8
0
100
AcDbBlockBegin
  2
*PAPER_SPACE0
 70
     0
 10
0.0
 20
0.0
 30
0.0
  3
*PAPER_SPACE0
  1
*Paper_Space0
  0
ENDBLK
  5
60
330
5D
100
AcDbEntity
  8
0
100
AcDbBlockEnd
  0
ENDSEC
  0
SECTION
  2
ENTITIES
  0
LINE
  5
126
330
1F
100
AcDbEntity
  8
0
100
AcDbLine
 10
0.1968500000000001
 20
0.0
 30
0.0
 11
15.803118
 21
0.0
 31
0.0
  0
LINE
  5
128
330
1F
100
AcDbEntity
  8
0
100
AcDbLine
 10
15.803118
 20
16.499967
 30
0.0
 11
0.19685
 21
16.499967
 31
0.0
  0
CIRCLE
  5
160
330
1F
100
AcDbEntity
  8
0
100
AcDbCircle
 10
0.999998
 20
0.12499975
 30
0.0
 40
0.04687490625
  0
CIRCLE
  5
186
330
1F
100
AcDbEntity
  8
0
100
AcDbCircle
 10
0.999998
 20
0.37499925
 30
0.0
 40
0.046999906
  0
CIRCLE
  5
1AC
330
1F
100
AcDbEntity
  8
0
100
AcDbCircle
 10
1.999996
 20
0.37499925
 30
0.0
 40
0.046999906
  0
CIRCLE
  5
1D2
330
1F
100
AcDbEntity
  8
0
100
AcDbCircle
 10
2.999994
 20
0.37499925
 30
0.0
 40
0.046999906
  0
CIRCLE
  5
1F8
330
1F
100
AcDbEntity
  8
0
100
AcDbCircle
 10
2.999994
 20
0.12499975
 30
0.0
 40
0.04687490625
  0
CIRCLE
  5
21E
330
1F
100
AcDbEntity
  8
0
100
AcDbCircle
 10
3.999992
 20
0.37499925
 30
0.0
 40
0.046999906
  0
CIRCLE
  5
244
330
1F
100
AcDbEntity
  8
0
100
AcDbCircle
 10
4.999989999999999
 20
0.37499925
 30
0.0
 40
0.046999906
  0
CIRCLE
  5
26A
330
1F
100
AcDbEntity
  8
0
100
AcDbCircle
 10
4.999989999999999
 20
0.12499975
 30
0.0
 40
0.04687490625
  0
CIRCLE
  5
290
330
1F
100
AcDbEntity
  8
0
100
AcDbCircle
 10
5.999988000000005
 20
0.37499925
 30
0.0
 40
0.046999906
  0
CIRCLE
  5
2B6
330
1F
100
AcDbEntity
  8
0
100
AcDbCircle
 10
6.999986000000003
 20
0.37499925
 30
0.0
 40
0.046999906
  0
CIRCLE
  5
2DC
330
1F
100
AcDbEntity
  8
0
100
AcDbCircle
 10
6.999986000000001
 20
0.12499975
 30
0.0
 40
0.04687490625
  0
CIRCLE
  5
302
330
1F
100
AcDbEntity
  8
0
100
AcDbCircle
 10
7.999984
 20
0.37499925
 30
0.0
 40
0.046999906
  0
CIRCLE
  5
328
330
1F
100
AcDbEntity
  8
0
100
AcDbCircle
 10
8.999982
 20
0.37499925
 30
0.0
 40
0.046999906
  0
CIRCLE
  5
34E
330
1F
100
AcDbEntity
  8
0
100
AcDbCircle
 10
8.999982
 20
0.12499975
 30
0.0
 40
0.04687490625
  0
CIRCLE
  5
375
330
1F
100
AcDbEntity
  8
0
100
AcDbCircle
 10
9.999979999999999
 20
0.37499925
 30
0.0
 40
0.046999906
  0
CIRCLE
  5
376
330
1F
100
AcDbEntity
  8
0
100
AcDbCircle
 10
10.999978
 20
0.37499925
 30
0.0
 40
0.046999906
  0
CIRCLE
  5
39C
330
1F
100
AcDbEntity
  8
0
100
AcDbCircle
 10
10.999978
 20
0.12499975
 30
0.0
 40
0.04687490625
  0
CIRCLE
  5
3C2
330
1F
100
AcDbEntity
  8
0
100
AcDbCircle
 10
11.999976
 20
0.37499925
 30
0.0
 40
0.046999906
  0
CIRCLE
  5
3E8
330
1F
100
AcDbEntity
  8
0
100
AcDbCircle
 10
12.999974
 20
0.37499925
 30
0.0
 40
0.046999906
  0
CIRCLE
  5
40E
330
1F
100
AcDbEntity
  8
0
100
AcDbCircle
 10
12.999974
 20
0.12499975
 30
0.0
 40
0.04687490625
  0
CIRCLE
  5
434
330
1F
100
AcDbEntity
  8
0
100
AcDbCircle
 10
13.999972
 20
0.37499925
 30
0.0
 40
0.046999906
  0
CIRCLE
  5
45A
330
1F
100
AcDbEntity
  8
0
100
AcDbCircle
 10
14.99997
 20
0.37499925
 30
0.0
 40
0.046999906
  0
CIRCLE
  5
480
330
1F
100
AcDbEntity
  8
0
100
AcDbCircle
 10
14.99997
 20
0.12499975
 30
0.0
 40
0.04687490625
  0
CIRCLE
  5
5A5
330
1F
100
AcDbEntity
  8
0
100
AcDbCircle
 10
0.999998
 20
16.37496725
 30
0.0
 40
0.04687490625
  0
CIRCLE
  5
5A6
330
1F
100
AcDbEntity
  8
0
100
AcDbCircle
 10
2.999994
 20
16.37496725
 30
0.0
 40
0.04687490625
  0
CIRCLE
  5
5A7
330
1F
100
AcDbEntity
  8
0
100
AcDbCircle
 10
4.999989999999999
 20
16.37496725
 30
0.0
 40
0.04687490625
  0
CIRCLE
  5
5A8
330
1F
100
AcDbEntity
  8
0
100
AcDbCircle
 10
6.999986000000001
 20
16.37496725
 30
0.0
 40
0.04687490625
  0
CIRCLE
  5
5A9
330
1F
100
AcDbEntity
  8
0
100
AcDbCircle
 10
8.999982
 20
16.37496725
 30
0.0
 40
0.04687490625
  0
CIRCLE
  5
5AA
330
1F
100
AcDbEntity
  8
0
100
AcDbCircle
 10
10.999978
 20
16.37496725
 30
0.0
 40
0.04687490625
  0
CIRCLE
  5
5AB
330
1F
100
AcDbEntity
  8
0
100
AcDbCircle
 10
12.999974
 20
16.37496725
 30
0.0
 40
0.04687490625
  0
CIRCLE
  5
5AC
330
1F
100
AcDbEntity
  8
0
100
AcDbCircle
 10
14.99997
 20
16.37496725
 30
0.0
 40
0.04687490625
  0
LINE
  5
78D
330
1F
100
AcDbEntity
  8
0
100
AcDbLine
 10
4.2499915
 20
15.62496875
 30
0.0
 11
4.2499915
 21
8.62498275
 31
0.0
  0
LINE
  5
791
330
1F
100
AcDbEntity
  8
0
100
AcDbLine
 10
7.749984499999999
 20
15.62496875
 30
0.0
 11
7.749984499999999
 21
8.62498275
 31
0.0
  0
LINE
  5
792
330
1F
100
AcDbEntity
  8
0
100
AcDbLine
 10
7.624984749999999
 20
0.7499985
 30
0.0
 11
4.37499125
 21
0.7499985
 31
0.0
  0
LINE
  5
794
330
1F
100
AcDbEntity
  8
0
100
AcDbLine
 10
8.249983499999999
 20
15.62496875
 30
0.0
 11
8.249983499999999
 21
8.62498275
 31
0.0
  0
LINE
  5
795
330
1F
100
AcDbEntity
  8
0
100
AcDbLine
 10
4.37499125
 20
15.7499685
 30
0.0
 11
7.624984749999999
 21
15.7499685
 31
0.0
  0
LINE
  5
797
330
1F
100
AcDbEntity
  8
0
100
AcDbLine
 10
8.37498325
 20
15.7499685
 30
0.0
 11
11.62497675
 21
15.7499685
 31
0.0
  0
LINE
  5
798
330
1F
100
AcDbEntity
  8
0
100
AcDbLine
 10
11.7499765
 20
15.62496875
 30
0.0
 11
11.7499765
 21
8.62498275
 31
0.0
  0
LINE
  5
79A
330
1F
100
AcDbEntity
  8
0
100
AcDbLine
 10
12.2499755
 20
0.8749982500000001
 30
0.0
 11
12.2499755
 21
7.874984250000001
 31
0.0
  0
LINE
  5
79C
330
1F
100
AcDbEntity
  8
0
100
AcDbLine
 10
8.37498325
 20
0.7499985
 30
0.0
 11
11.62497675
 21
0.7499985
 31
0.0
  0
LINE
  5
7A1
330
1F
100
AcDbEntity
  8
0
100
AcDbLine
 10
4.37499125
 20
8.37498325
 30
0.0
 11
7.624984749999999
 21
8.37498325
 31
0.0
  0
LINE
  5
7A3
330
1F
100
AcDbEntity
  8
0
100
AcDbLine
 10
8.37498325
 20
8.37498325
 30
0.0
 11
11.62497675
 21
8.37498325
 31
0.0
  0
LINE
  5
7A9
330
1F
100
AcDbEntity
  8
0
100
AcDbLine
 10
11.62497675
 20
8.12498375
 30
0.0
 11
8.37498325
 21
8.12498375
 31
0.0
  0
LINE
  5
7AB
330
1F
100
AcDbEntity
  8
0
100
AcDbLine
 10
7.624984749999999
 20
8.12498375
 30
0.0
 11
4.37499125
 21
8.12498375
 31
0.0
  0
LINE
  5
7B0
330
1F
100
AcDbEntity
  8
0
100
AcDbLine
 10
4.2499915
 20
7.874984250000001
 30
0.0
 11
4.2499915
 21
0.8749982500000001
 31
0.0
  0
LINE
  5
7B1
330
1F
100
AcDbEntity
  8
0
100
AcDbLine
 10
7.749984499999999
 20
7.874984250000001
 30
0.0
 11
7.749984499999999
 21
0.8749982500000001
 31
0.0
  0
LINE
  5
7B2
330
1F
100
AcDbEntity
  8
0
100
AcDbLine
 10
8.249983499999999
 20
7.874984250000001
 30
0.0
 11
8.249983499999999
 21
0.8749982500000001
 31
0.0
  0
LINE
  5
7B4
330
1F
100
AcDbEntity
  8
0
100
AcDbLine
 10
12.2499755
 20
8.62498275
 30
0.0
 11
12.2499755
 21
15.62496875
 31
0.0
  0
LINE
  5
7B5
330
1F
100
AcDbEntity
  8
0
100
AcDbLine
 10
11.7499765
 20
7.874984250000001
 30
0.0
 11
11.7499765
 21
0.8749982500000001
 31
0.0
  0
ARC
  5
7BE
330
1F
100
AcDbEntity
  8
0
100
AcDbCircle
 10
4.37499125
 20
0.8749982500000001
 30
0.0
 40
0.1249997500000001
100
AcDbArc
 50
180.0
 51
270.0
  0
ARC
  5
7BF
330
1F
100
AcDbEntity
  8
0
100
AcDbCircle
 10
7.624984749999999
 20
0.8749982500000001
 30
0.0
 40
0.1249997500000001
100
AcDbArc
 50
270.0
 51
0.0
  0
ARC
  5
7C0
330
1F
100
AcDbEntity
  8
0
100
AcDbCircle
 10
7.624984749999999
 20
7.999984
 30
0.0
 40
0.1249997500000001
100
AcDbArc
 50
0.0
 51
90.0
  0
ARC
  5
7C1
330
1F
100
AcDbEntity
  8
0
100
AcDbCircle
 10
4.37499125
 20
7.999984
 30
0.0
 40
0.1249997500000001
100
AcDbArc
 50
90.0
 51
180.0
  0
ARC
  5
7C2
330
1F
100
AcDbEntity
  8
0
100
AcDbCircle
 10
4.37499125
 20
8.499983
 30
0.0
 40
0.1249997500000001
100
AcDbArc
 50
180.0
 51
270.0
  0
ARC
  5
7C3
330
1F
100
AcDbEntity
  8
0
100
AcDbCircle
 10
7.624984749999999
 20
8.499983
 30
0.0
 40
0.1249997500000001
100
AcDbArc
 50
270.0
 51
0.0
  0
ARC
  5
7C4
330
1F
100
AcDbEntity
  8
0
100
AcDbCircle
 10
7.624984749999999
 20
15.62496875
 30
0.0
 40
0.1249997500000001
100
AcDbArc
 50
0.0
 51
90.0
  0
ARC
  5
7C5
330
1F
100
AcDbEntity
  8
0
100
AcDbCircle
 10
4.37499125
 20
15.62496875
 30
0.0
 40
0.1249997500000001
100
AcDbArc
 50
90.0
 51
180.0
  0
ARC
  5
7C6
330
1F
100
AcDbEntity
  8
0
100
AcDbCircle
 10
8.37498325
 20
15.62496875
 30
0.0
 40
0.1249997500000001
100
AcDbArc
 50
90.0
 51
180.0
  0
ARC
  5
7C7
330
1F
100
AcDbEntity
  8
0
100
AcDbCircle
 10
11.62497675
 20
15.62496875
 30
0.0
 40
0.1249997500000001
100
AcDbArc
 50
0.0
 51
90.0
  0
ARC
  5
7C8
330
1F
100
AcDbEntity
  8
0
100
AcDbCircle
 10
8.37498325
 20
8.499983
 30
0.0
 40
0.1249997500000001
100
AcDbArc
 50
180.0
 51
270.0
  0
ARC
  5
7C9
330
1F
100
AcDbEntity
  8
0
100
AcDbCircle
 10
11.62497675
 20
8.499983
 30
0.0
 40
0.1249997500000001
100
AcDbArc
 50
270.0
 51
0.0
  0
ARC
  5
7CA
330
1F
100
AcDbEntity
  8
0
100
AcDbCircle
 10
8.37498325
 20
7.999984
 30
0.0
 40
0.1249997500000001
100
AcDbArc
 50
90.0
 51
180.0
  0
ARC
  5
7CB
330
1F
100
AcDbEntity
  8
0
100
AcDbCircle
 10
11.62497675
 20
7.999984
 30
0.0
 40
0.1249997500000001
100
AcDbArc
 50
0.0
 51
90.0
  0
ARC
  5
7CC
330
1F
100
AcDbEntity
  8
0
100
AcDbCircle
 10
11.62497675
 20
0.8749982500000001
 30
0.0
 40
0.1249997500000001
100
AcDbArc
 50
270.0
 51
0.0
  0
ARC
  5
7CD
330
1F
100
AcDbEntity
  8
0
100
AcDbCircle
 10
8.37498325
 20
0.8749982500000001
 30
0.0
 40
0.1249997500000001
100
AcDbArc
 50
180.0
 51
270.0
  0
ARC
  5
7CE
330
1F
100
AcDbEntity
  8
0
100
AcDbCircle
 10
12.37497525
 20
0.8749982500000001
 30
0.0
 40
0.1249997500000001
100
AcDbArc
 50
180.0
 51
270.0
  0
ARC
  5
7D0
330
1F
100
AcDbEntity
  8
0
100
AcDbCircle
 10
12.37497525
 20
7.999984
 30
0.0
 40
0.1249997500000001
100
AcDbArc
 50
90.0
 51
180.0
  0
ARC
  5
7D3
330
1F
100
AcDbEntity
  8
0
100
AcDbCircle
 10
12.37497525
 20
8.499983
 30
0.0
 40
0.1249997500000001
100
AcDbArc
 50
180.0
 51
270.0
  0
ARC
  5
7D4
330
1F
100
AcDbEntity
  8
0
100
AcDbCircle
 10
12.37497525
 20
15.62496875
 30
0.0
 40
0.1249997500000001
100
AcDbArc
 50
90.0
 51
180.0
  0
LINE
  5
7D7
330
1F
100
AcDbEntity
  8
0
100
AcDbLine
 10
4.0499919
 20
0.7499985
 30
0.0
 11
4.0499919
 21
7.999984
 31
0.0
  0
LINE
  5
7D9
330
1F
100
AcDbEntity
  8
0
100
AcDbLine
 10
3.9499921
 20
15.7499685
 30
0.0
 11
3.9499921
 21
8.499983
 31
0.0
  0
ARC
  5
7DB
330
1F
100
AcDbEntity
  8
0
100
AcDbCircle
 10
3.999992
 20
15.7499685
 30
0.0
 40
0.0499998999999998
100
AcDbArc
 50
0.0
 51
180.0
  0
ARC
  5
7DC
330
1F
100
AcDbEntity
  8
0
100
AcDbCircle
 10
3.999992
 20
0.7499985
 30
0.0
 40
0.0499998999999998
100
AcDbArc
 50
180.0
 51
0.0
  0
LINE
  5
80B
330
1F
100
AcDbEntity
  8
0
100
AcDbLine
 10
8.049983899999999
 20
0.7499985
 30
0.0
 11
8.049983899999999
 21
7.9993840012
 31
0.0
  0
LINE
  5
80D
330
1F
100
AcDbEntity
  8
0
100
AcDbLine
 10
7.9499841
 20
15.7499685
 30
0.0
 11
7.9499841
 21
8.499983
 31
0.0
  0
ARC
  5
80F
330
1F
100
AcDbEntity
  8
0
100
AcDbCircle
 10
7.999984
 20
15.7499685
 30
0.0
 40
0.0499998999999998
100
AcDbArc
 50
0.0
 51
180.0
  0
ARC
  5
810
330
1F
100
AcDbEntity
  8
0
100
AcDbCircle
 10
7.999984
 20
0.7499985
 30
0.0
 40
0.0499998999999998
100
AcDbArc
 50
180.0
 51
0.0
  0
LINE
  5
83F
330
1F
100
AcDbEntity
  8
0
100
AcDbLine
 10
12.0499759
 20
0.7499985
 30
0.0
 11
12.0499759
 21
7.999984
 31
0.0
  0
LINE
  5
841
330
1F
100
AcDbEntity
  8
0
100
AcDbLine
 10
11.9499761
 20
15.7499685
 30
0.0
 11
11.9499761
 21
8.499983
 31
0.0
  0
ARC
  5
843
330
1F
100
AcDbEntity
  8
0
100
AcDbCircle
 10
11.999976
 20
15.7499685
 30
0.0
 40
0.0499998999999998
100
AcDbArc
 50
0.0
 51
180.0
  0
ARC
  5
844
330
1F
100
AcDbEntity
  8
0
100
AcDbCircle
 10
11.999976
 20
0.7499985
 30
0.0
 40
0.0499998999999998
100
AcDbArc
 50
180.0
 51
0.0
  0
LINE
  5
849
330
1F
100
AcDbEntity
  8
0
 48
0.2
100
AcDbLine
 10
4.0999918
 20
0.7499985
 30
0.0
 11
4.0999918
 21
7.999984
 31
0.0
  0
LINE
  5
84B
330
1F
100
AcDbEntity
  8
0
 48
0.2
100
AcDbLine
 10
3.8999922
 20
15.7499685
 30
0.0
 11
3.8999922
 21
8.499983
 31
0.0
  0
ARC
  5
84D
330
1F
100
AcDbEntity
  8
0
 48
0.2
100
AcDbCircle
 10
3.999992
 20
0.7499985
 30
0.0
 40
0.0999997999999996
100
AcDbArc
 50
180.0
 51
0.0
  0
ARC
  5
84E
330
1F
100
AcDbEntity
  8
0
 48
0.2
100
AcDbCircle
 10
3.999992
 20
15.7499685
 30
0.0
 40
0.0999997999999996
100
AcDbArc
 50
0.0
 51
180.0
  0
LINE
  5
87F
330
1F
100
AcDbEntity
  8
0
 48
0.2
100
AcDbLine
 10
8.099983800000004
 20
0.7499985
 30
0.0
 11
8.099983800000004
 21
7.9993840012
 31
0.0
  0
LINE
  5
880
330
1F
100
AcDbEntity
  8
0
 48
0.2
100
AcDbLine
 10
7.8999842
 20
15.7499685
 30
0.0
 11
7.8999842
 21
8.499983
 31
0.0
  0
ARC
  5
881
330
1F
100
AcDbEntity
  8
0
 48
0.2
100
AcDbCircle
 10
7.999984
 20
0.7499985
 30
0.0
 40
0.0999997999999996
100
AcDbArc
 50
180.0
 51
0.0
  0
ARC
  5
882
330
1F
100
AcDbEntity
  8
0
 48
0.2
100
AcDbCircle
 10
7.999984
 20
15.7499685
 30
0.0
 40
0.0999997999999996
100
AcDbArc
 50
0.0
 51
180.0
  0
LINE
  5
8B3
330
1F
100
AcDbEntity
  8
0
 48
0.2
100
AcDbLine
 10
12.0999758
 20
0.7499985
 30
0.0
 11
12.0999758
 21
7.999984
 31
0.0
  0
LINE
  5
8B4
330
1F
100
AcDbEntity
  8
0
 48
0.2
100
AcDbLine
 10
11.8999762
 20
15.7499685
 30
0.0
 11
11.8999762
 21
8.499983
 31
0.0
  0
ARC
  5
8B5
330
1F
100
AcDbEntity
  8
0
 48
0.2
100
AcDbCircle
 10
11.999976
 20
0.7499985
 30
0.0
 40
0.0999997999999996
100
AcDbArc
 50
180.0
 51
0.0
  0
ARC
  5
8B6
330
1F
100
AcDbEntity
  8
0
 48
0.2
100
AcDbCircle
 10
11.999976
 20
15.7499685
 30
0.0
 40
0.0999997999999996
100
AcDbArc
 50
0.0
 51
180.0
  0
CIRCLE
  5
B29
330
1F
100
AcDbEntity
  8
0
 48
0.1
100
AcDbCircle
 10
14.99997
 20
0.37499925
 30
0.0
 40
0.080999838
  0
CIRCLE
  5
B50
330
1F
100
AcDbEntity
  8
0
 48
0.1
100
AcDbCircle
 10
13.999972
 20
0.37499925
 30
0.0
 40
0.080999838
  0
CIRCLE
  5
B77
330
1F
100
AcDbEntity
  8
0
 48
0.1
100
AcDbCircle
 10
12.999974
 20
0.37499925
 30
0.0
 40
0.080999838
  0
CIRCLE
  5
B9E
330
1F
100
AcDbEntity
  8
0
 48
0.1
100
AcDbCircle
 10
11.999976
 20
0.37499925
 30
0.0
 40
0.080999838
  0
CIRCLE
  5
BC5
330
1F
100
AcDbEntity
  8
0
 48
0.1
100
AcDbCircle
 10
10.999978
 20
0.37499925
 30
0.0
 40
0.080999838
  0
CIRCLE
  5
BEC
330
1F
100
AcDbEntity
  8
0
 48
0.1
100
AcDbCircle
 10
9.999979999999999
 20
0.37499925
 30
0.0
 40
0.080999838
  0
CIRCLE
  5
C13
330
1F
100
AcDbEntity
  8
0
 48
0.1
100
AcDbCircle
 10
8.999982
 20
0.37499925
 30
0.0
 40
0.080999838
  0
CIRCLE
  5
C3A
330
1F
100
AcDbEntity
  8
0
 48
0.1
100
AcDbCircle
 10
7.999984
 20
0.37499925
 30
0.0
 40
0.080999838
  0
CIRCLE
  5
C61
330
1F
100
AcDbEntity
  8
0
 48
0.1
100
AcDbCircle
 10
6.999986000000001
 20
0.37499925
 30
0.0
 40
0.080999838
  0
CIRCLE
  5
C88
330
1F
100
AcDbEntity
  8
0
 48
0.1
100
AcDbCircle
 10
5.999988
 20
0.37499925
 30
0.0
 40
0.080999838
  0
CIRCLE
  5
CAF
330
1F
100
AcDbEntity
  8
0
 48
0.1
100
AcDbCircle
 10
4.999989999999999
 20
0.37499925
 30
0.0
 40
0.080999838
  0
CIRCLE
  5
CD6
330
1F
100
AcDbEntity
  8
0
 48
0.1
100
AcDbCircle
 10
3.999992
 20
0.37499925
 30
0.0
 40
0.080999838
  0
CIRCLE
  5
CFD
330
1F
100
AcDbEntity
  8
0
 48
0.1
100
AcDbCircle
 10
2.999994
 20
0.37499925
 30
0.0
 40
0.080999838
  0
CIRCLE
  5
D24
330
1F
100
AcDbEntity
  8
0
 48
0.1
100
AcDbCircle
 10
1.999996
 20
0.37499925
 30
0.0
 40
0.080999838
  0
CIRCLE
  5
D4B
330
1F
100
AcDbEntity
  8
0
 48
0.1
100
AcDbCircle
 10
0.999998
 20
0.37499925
 30
0.0
 40
0.080999838
  0
LINE
  5
D66
330
1F
100
AcDbEntity
  8
0
100
AcDbLine
 10
4.2499915
 20
8.62498275
 30
0.0
 11
4.2499915
 21
8.499983
 31
0.0
  0
LINE
  5
D67
330
1F
100
AcDbEntity
  8
0
100
AcDbLine
 10
4.2499915
 20
7.874984250000001
 30
0.0
 11
4.2499915
 21
7.999984
 31
0.0
  0
LINE
  5
D69
330
1F
100
AcDbEntity
  8
0
100
AcDbLine
 10
7.749984499999999
 20
8.62498275
 30
0.0
 11
7.749984499999999
 21
8.499983
 31
0.0
  0
LINE
  5
D6A
330
1F
100
AcDbEntity
  8
0
100
AcDbLine
 10
8.249983499999999
 20
8.62498275
 30
0.0
 11
8.249983499999999
 21
8.499983
 31
0.0
  0
LINE
  5
D6B
330
1F
100
AcDbEntity
  8
0
100
AcDbLine
 10
8.249983499999999
 20
7.999984
 30
0.0
 11
8.249983499999999
 21
7.874984250000001
 31
0.0
  0
LINE
  5
D6C
330
1F
100
AcDbEntity
  8
0
100
AcDbLine
 10
7.749984499999999
 20
7.874984250000001
 30
0.0
 11
7.749984499999999
 21
7.999984
 31
0.0
  0
LINE
  5
D6D
330
1F
100
AcDbEntity
  8
0
100
AcDbLine
 10
11.7499765
 20
8.62498275
 30
0.0
 11
11.7499765
 21
8.499983
 31
0.0
  0
LINE
  5
D6E
330
1F
100
AcDbEntity
  8
0
100
AcDbLine
 10
11.7499765
 20
7.999984
 30
0.0
 11
11.7499765
 21
7.874984250000001
 31
0.0
  0
LINE
  5
D6F
330
1F
100
AcDbEntity
  8
0
100
AcDbLine
 10
12.2499755
 20
7.999984
 30
0.0
 11
12.2499755
 21
7.874984250000001
 31
0.0
  0
LINE
  5
D70
330
1F
100
AcDbEntity
  8
0
100
AcDbLine
 10
12.2499755
 20
8.62498275
 30
0.0
 11
12.2499755
 21
8.499983
 31
0.0
  0
LINE
  5
D79
330
1F
100
AcDbEntity
  8
0
 48
0.2
100
AcDbLine
 10
3.8999922
 20
7.999984
 30
0.0
 11
3.8999922
 21
0.7499985
 31
0.0
  0
LINE
  5
D7A
330
1F
100
AcDbEntity
  8
0
100
AcDbLine
 10
3.9499921
 20
7.999984
 30
0.0
 11
3.9499921
 21
0.7499985
 31
0.0
  0
LINE
  5
D7B
330
1F
100
AcDbEntity
  8
0
100
AcDbLine
 10
4.0499919
 20
8.499983
 30
0.0
 11
4.0499919
 21
15.7499685
 31
0.0
  0
LINE
  5
D7C
330
1F
100
AcDbEntity
  8
0
 48
0.2
100
AcDbLine
 10
4.0999918
 20
8.499983
 30
0.0
 11
4.0999918
 21
15.7499685
 31
0.0
  0
LINE
  5
D7D
330
1F
100
AcDbEntity
  8
0
 48
0.2
100
AcDbLine
 10
7.8999842
 20
7.9993840012
 30
0.0
 11
7.8999842
 21
0.7499985
 31
0.0
  0
LINE
  5
D7E
330
1F
100
AcDbEntity
  8
0
100
AcDbLine
 10
7.9499841
 20
7.9993840012
 30
0.0
 11
7.9499841
 21
0.7499985
 31
0.0
  0
LINE
  5
D7F
330
1F
100
AcDbEntity
  8
0
100
AcDbLine
 10
8.049983899999999
 20
8.499983
 30
0.0
 11
8.049983899999999
 21
15.7499685
 31
0.0
  0
LINE
  5
D80
330
1F
100
AcDbEntity
  8
0
 48
0.2
100
AcDbLine
 10
8.099983800000004
 20
8.499983
 30
0.0
 11
8.099983800000004
 21
15.7499685
 31
0.0
  0
LINE
  5
D81
330
1F
100
AcDbEntity
  8
0
 48
0.2
100
AcDbLine
 10
12.0999758
 20
8.499983
 30
0.0
 11
12.0999758
 21
15.7499685
 31
0.0
  0
LINE
  5
D82
330
1F
100
AcDbEntity
  8
0
100
AcDbLine
 10
12.0499759
 20
8.499983
 30
0.0
 11
12.0499759
 21
15.7499685
 31
0.0
  0
LINE
  5
D83
330
1F
100
AcDbEntity
  8
0
100
AcDbLine
 10
11.9499761
 20
7.999984
 30
0.0
 11
11.9499761
 21
0.7499985
 31
0.0
  0
LINE
  5
D84
330
1F
100
AcDbEntity
  8
0
 48
0.2
100
AcDbLine
 10
11.8999762
 20
7.999984
 30
0.0
 11
11.8999762
 21
0.7499985
 31
0.0
  0
ARC
  5
DAC
330
1F
100
AcDbEntity
  8
0
100
AcDbCircle
 10
7.999984
 20
7.9993840012
 30
0.0
 40
0.0499998999999998
100
AcDbArc
 50
0.0
 51
180.0
  0
ARC
  5
DAD
330
1F
100
AcDbEntity
  8
0
 48
0.2
100
AcDbCircle
 10
7.999984
 20
7.9993840012
 30
0.0
 40
0.0999997999999996
100
AcDbArc
 50
0.0
 51
180.0
  0
ARC
  5
DD5
330
1F
100
AcDbEntity
  8
0
100
AcDbCircle
 10
3.999992
 20
7.999984
 30
0.0
 40
0.0499998999999998
100
AcDbArc
 50
0.0
 51
180.0
  0
ARC
  5
DD6
330
1F
100
AcDbEntity
  8
0
 48
0.2
100
AcDbCircle
 10
3.999992
 20
7.999984
 30
0.0
 40
0.0999997999999996
100
AcDbArc
 50
0.0
 51
180.0
  0
ARC
  5
DFE
330
1F
100
AcDbEntity
  8
0
100
AcDbCircle
 10
11.999976
 20
7.999984
 30
0.0
 40
0.0499998999999998
100
AcDbArc
 50
0.0
 51
180.0
  0
ARC
  5
DFF
330
1F
100
AcDbEntity
  8
0
 48
0.2
100
AcDbCircle
 10
11.999976
 20
7.999984
 30
0.0
 40
0.0999997999999996
100
AcDbArc
 50
0.0
 51
180.0
  0
ARC
  5
E27
330
1F
100
AcDbEntity
  8
0
100
AcDbCircle
 10
3.999992
 20
8.499983
 30
0.0
 40
0.0499998999999998
100
AcDbArc
 50
180.0
 51
0.0
  0
ARC
  5
E28
330
1F
100
AcDbEntity
  8
0
 48
0.2
100
AcDbCircle
 10
3.999992
 20
8.499983
 30
0.0
 40
0.0999997999999996
100
AcDbArc
 50
180.0
 51
0.0
  0
ARC
  5
E50
330
1F
100
AcDbEntity
  8
0
100
AcDbCircle
 10
7.999984
 20
8.499983
 30
0.0
 40
0.0499998999999998
100
AcDbArc
 50
180.0
 51
0.0
  0
ARC
  5
E51
330
1F
100
AcDbEntity
  8
0
 48
0.2
100
AcDbCircle
 10
7.999984
 20
8.499983
 30
0.0
 40
0.0999997999999996
100
AcDbArc
 50
180.0
 51
0.0
  0
ARC
  5
E79
330
1F
100
AcDbEntity
  8
0
100
AcDbCircle
 10
11.999976
 20
8.499983
 30
0.0
 40
0.0499998999999998
100
AcDbArc
 50
180.0
 51
0.0
  0
ARC
  5
E7A
330
1F
100
AcDbEntity
  8
0
 48
0.2
100
AcDbCircle
 10
11.999976
 20
8.499983
 30
0.0
 40
0.0999997999999996
100
AcDbArc
 50
180.0
 51
0.0
  0
LINE
  5
E7F
330
1F
100
AcDbEntity
  8
0
100
AcDbLine
 10
0.0
 20
16.303117
 30
0.0
 11
0.0
 21
0.19685
 31
0.0
  0
LINE
  5
E80
330
1F
100
AcDbEntity
  8
0
100
AcDbLine
 10
15.999968
 20
0.1968500000000001
 30
0.0
 11
15.999968
 21
16.303117
 31
0.0
  0
CIRCLE
  5
F08
330
1F
100
AcDbEntity
  8
0
100
AcDbCircle
 10
15.87496825
 20
0.37499925
 30
0.0
 40
0.04687490625
  0
CIRCLE
  5
F2F
330
1F
100
AcDbEntity
  8
0
100
AcDbCircle
 10
0.12499975
 20
0.37499925
 30
0.0
 40
0.04687490625
  0
ARC
  5
F30
330
1F
100
AcDbEntity
  8
0
100
AcDbCircle
 10
0.1968500000000001
 20
16.303117
 30
0.0
 40
0.1968500000000001
100
AcDbArc
 50
90.0
 51
180.0
  0
ARC
  5
F31
330
1F
100
AcDbEntity
  8
0
100
AcDbCircle
 10
0.1968500000000001
 20
0.1968500000000001
 30
0.0
 40
0.1968500000000001
100
AcDbArc
 50
180.0
 51
270.0
  0
ARC
  5
F32
330
1F
100
AcDbEntity
  8
0
100
AcDbCircle
 10
15.803118
 20
0.1968500000000001
 30
0.0
 40
0.1968500000000001
100
AcDbArc
 50
270.0
 51
0.0
  0
ARC
  5
F33
330
1F
100
AcDbEntity
  8
0
100
AcDbCircle
 10
15.803118
 20
16.303117
 30
0.0
 40
0.1968500000000001
100
AcDbArc
 50
0.0
 51
90.0
  0
LINE
  5
1009
330
1F
100
AcDbEntity
  8
0
100
AcDbLine
 10
0.2999993999999999
 20
0.7499985000000002
 30
0.0
 11
0.2999993999999999
 21
7.999984
 31
0.0
  0
LINE
  5
100A
330
1F
100
AcDbEntity
  8
0
100
AcDbLine
 10
0.1999995999999995
 20
15.7499685
 30
0.0
 11
0.1999995999999995
 21
8.499983000000002
 31
0.0
  0
ARC
  5
100B
330
1F
100
AcDbEntity
  8
0
100
AcDbCircle
 10
0.2499994999999999
 20
15.7499685
 30
0.0
 40
0.0499998999999998
100
AcDbArc
 50
0.0
 51
180.0
  0
ARC
  5
100C
330
1F
100
AcDbEntity
  8
0
100
AcDbCircle
 10
0.2499994999999999
 20
0.7499985000000002
 30
0.0
 40
0.0499998999999998
100
AcDbArc
 50
180.0
 51
0.0
  0
LINE
  5
100D
330
1F
100
AcDbEntity
  8
0
 48
0.2
100
AcDbLine
 10
0.3499992999999995
 20
0.7499985000000002
 30
0.0
 11
0.3499992999999995
 21
7.999984
 31
0.0
  0
LINE
  5
100E
330
1F
100
AcDbEntity
  8
0
 48
0.2
100
AcDbLine
 10
0.1499997
 20
15.7499685
 30
0.0
 11
0.1499997
 21
8.499983000000002
 31
0.0
  0
ARC
  5
100F
330
1F
100
AcDbEntity
  8
0
 48
0.2
100
AcDbCircle
 10
0.2499994999999999
 20
0.7499985000000002
 30
0.0
 40
0.0999997999999996
100
AcDbArc
 50
180.0
 51
0.0
  0
ARC
  5
1010
330
1F
100
AcDbEntity
  8
0
 48
0.2
100
AcDbCircle
 10
0.2499994999999999
 20
15.7499685
 30
0.0
 40
0.0999997999999996
100
AcDbArc
 50
0.0
 51
180.0
  0
LINE
  5
1011
330
1F
100
AcDbEntity
  8
0
 48
0.2
100
AcDbLine
 10
0.1499997
 20
7.999984
 30
0.0
 11
0.1499997
 21
0.7499985000000002
 31
0.0
  0
LINE
  5
1012
330
1F
100
AcDbEntity
  8
0
100
AcDbLine
 10
0.1999995999999995
 20
7.999984
 30
0.0
 11
0.1999995999999995
 21
0.7499985000000002
 31
0.0
  0
LINE
  5
1013
330
1F
100
AcDbEntity
  8
0
100
AcDbLine
 10
0.2999993999999999
 20
8.499983000000002
 30
0.0
 11
0.2999993999999999
 21
15.7499685
 31
0.0
  0
LINE
  5
1014
330
1F
100
AcDbEntity
  8
0
 48
0.2
100
AcDbLine
 10
0.3499992999999995
 20
8.499983000000002
 30
0.0
 11
0.3499992999999995
 21
15.7499685
 31
0.0
  0
LINE
  5
1019
330
1F
100
AcDbEntity
  8
0
100
AcDbLine
 10
0.1499997
 20
8.499983000000002
 30
0.0
 11
0.1499997
 21
7.999984
 31
0.0
  0
LINE
  5
101A
330
1F
100
AcDbEntity
  8
0
100
AcDbLine
 10
0.1999995999999995
 20
8.499983000000002
 30
0.0
 11
0.1999995999999995
 21
7.999984
 31
0.0
  0
LINE
  5
101B
330
1F
100
AcDbEntity
  8
0
100
AcDbLine
 10
0.2999993999999999
 20
8.499983000000002
 30
0.0
 11
0.2999993999999999
 21
7.999984
 31
0.0
  0
LINE
  5
101C
330
1F
100
AcDbEntity
  8
0
100
AcDbLine
 10
0.3499992999999995
 20
8.499983000000002
 30
0.0
 11
0.3499992999999995
 21
7.999984
 31
0.0
  0
LINE
  5
107C
330
1F
100
AcDbEntity
  8
0
100
AcDbLine
 10
15.7999681
 20
0.7499985
 30
0.0
 11
15.7999681
 21
7.999984
 31
0.0
  0
LINE
  5
107D
330
1F
100
AcDbEntity
  8
0
100
AcDbLine
 10
15.6999683
 20
15.7499685
 30
0.0
 11
15.6999683
 21
8.499983000000002
 31
0.0
  0
ARC
  5
107E
330
1F
100
AcDbEntity
  8
0
100
AcDbCircle
 10
15.7499682
 20
15.7499685
 30
0.0
 40
0.0499998999999998
100
AcDbArc
 50
0.0
 51
180.0
  0
ARC
  5
107F
330
1F
100
AcDbEntity
  8
0
100
AcDbCircle
 10
15.7499682
 20
0.7499985
 30
0.0
 40
0.0499998999999998
100
AcDbArc
 50
180.0
 51
0.0
  0
LINE
  5
1080
330
1F
100
AcDbEntity
  8
0
 48
0.2
100
AcDbLine
 10
15.849968
 20
0.7499985
 30
0.0
 11
15.849968
 21
7.999984
 31
0.0
  0
LINE
  5
1081
330
1F
100
AcDbEntity
  8
0
 48
0.2
100
AcDbLine
 10
15.6499684
 20
15.7499685
 30
0.0
 11
15.6499684
 21
8.499983000000002
 31
0.0
  0
ARC
  5
1082
330
1F
100
AcDbEntity
  8
0
 48
0.2
100
AcDbCircle
 10
15.7499682
 20
0.7499985
 30
0.0
 40
0.0999997999999996
100
AcDbArc
 50
180.0
 51
0.0
  0
ARC
  5
1083
330
1F
100
AcDbEntity
  8
0
 48
0.2
100
AcDbCircle
 10
15.7499682
 20
15.7499685
 30
0.0
 40
0.0999997999999996
100
AcDbArc
 50
0.0
 51
180.0
  0
LINE
  5
1084
330
1F
100
AcDbEntity
  8
0
 48
0.2
100
AcDbLine
 10
15.6499684
 20
7.999984
 30
0.0
 11
15.6499684
 21
0.7499985
 31
0.0
  0
LINE
  5
1085
330
1F
100
AcDbEntity
  8
0
100
AcDbLine
 10
15.6999683
 20
7.999984
 30
0.0
 11
15.6999683
 21
0.7499985
 31
0.0
  0
LINE
  5
1086
330
1F
100
AcDbEntity
  8
0
100
AcDbLine
 10
15.7999681
 20
8.499983000000002
 30
0.0
 11
15.7999681
 21
15.7499685
 31
0.0
  0
LINE
  5
1087
330
1F
100
AcDbEntity
  8
0
 48
0.2
100
AcDbLine
 10
15.849968
 20
8.499983000000002
 30
0.0
 11
15.849968
 21
15.7499685
 31
0.0
  0
LINE
  5
1088
330
1F
100
AcDbEntity
  8
0
100
AcDbLine
 10
15.6499684
 20
8.499983000000002
 30
0.0
 11
15.6499684
 21
7.999984
 31
0.0
  0
LINE
  5
1089
330
1F
100
AcDbEntity
  8
0
100
AcDbLine
 10
15.6999683
 20
8.499983000000002
 30
0.0
 11
15.6999683
 21
7.999984
 31
0.0
  0
LINE
  5
108A
330
1F
100
AcDbEntity
  8
0
100
AcDbLine
 10
15.7999681
 20
8.499983000000002
 30
0.0
 11
15.7999681
 21
7.999984
 31
0.0
  0
LINE
  5
108B
330
1F
100
AcDbEntity
  8
0
100
AcDbLine
 10
15.849968
 20
8.499983000000002
 30
0.0
 11
15.849968
 21
7.999984
 31
0.0
  0
LINE
  5
11C0
330
1F
100
AcDbEntity
  8
0
100
AcDbLine
 10
12.37497525
 20
15.7499685
 30
0.0
 11
15.3749684
 21
15.7499685
 31
0.0
  0
LINE
  5
11C1
330
1F
100
AcDbEntity
  8
0
100
AcDbLine
 10
15.4999684
 20
15.6249685
 30
0.0
 11
15.4999684
 21
8.49998325
 31
0.0
  0
LINE
  5
11C2
330
1F
100
AcDbEntity
  8
0
100
AcDbLine
 10
15.3749684
 20
0.7499985000000002
 30
0.0
 11
12.37497525
 21
0.7499985000000002
 31
0.0
  0
LINE
  5
11C3
330
1F
100
AcDbEntity
  8
0
100
AcDbLine
 10
0.4999992999999998
 20
0.8749985000000017
 30
0.0
 11
0.4999992999999998
 21
7.999983749999998
 31
0.0
  0
LINE
  5
11C4
330
1F
100
AcDbEntity
  8
0
100
AcDbLine
 10
0.6249993
 20
15.7499685
 30
0.0
 11
3.624992199999999
 21
15.7499685
 31
0.0
  0
LINE
  5
11C5
330
1F
100
AcDbEntity
  8
0
100
AcDbLine
 10
3.7499922
 20
15.6249685
 30
0.0
 11
3.7499922
 21
8.49998325
 31
0.0
  0
LINE
  5
11C6
330
1F
100
AcDbEntity
  8
0
100
AcDbLine
 10
3.6249922
 20
0.7499985000000001
 30
0.0
 11
0.6249992999999998
 21
0.7499985000000017
 31
0.0
  0
LINE
  5
11F1
330
1F
100
AcDbEntity
  8
0
100
AcDbLine
 10
3.6249922
 20
8.37498325
 30
0.0
 11
0.6249992999999998
 21
8.37498325
 31
0.0
  0
LINE
  5
11F2
330
1F
100
AcDbEntity
  8
0
100
AcDbLine
 10
3.6249922
 20
8.12498375
 30
0.0
 11
0.6249992999999998
 21
8.124983749999998
 31
0.0
  0
LINE
  5
11F3
330
1F
100
AcDbEntity
  8
0
100
AcDbLine
 10
12.37497525
 20
8.37498325
 30
0.0
 11
15.3749684
 21
8.37498325
 31
0.0
  0
LINE
  5
11F4
330
1F
100
AcDbEntity
  8
0
100
AcDbLine
 10
12.37497525
 20
8.12498375
 30
0.0
 11
15.3749684
 21
8.12498375
 31
0.0
  0
LINE
  5
11F5
330
1F
100
AcDbEntity
  8
0
100
AcDbLine
 10
0.4999992999999999
 20
8.49998325
 30
0.0
 11
0.4999992999999999
 21
15.6249685
 31
0.0
  0
LINE
  5
11F6
330
1F
100
AcDbEntity
  8
0
100
AcDbLine
 10
3.7499922
 20
7.99998375
 30
0.0
 11
3.7499922
 21
0.8749985
 31
0.0
  0
LINE
  5
11F7
330
1F
100
AcDbEntity
  8
0
100
AcDbLine
 10
15.4999684
 20
7.99998375
 30
0.0
 11
15.4999684
 21
0.8749985000000002
 31
0.0
  0
ARC
  5
11F8
330
1F
100
AcDbEntity
  8
0
100
AcDbCircle
 10
3.6249922
 20
15.6249685
 30
0.0
 40
0.125
100
AcDbArc
 50
0.0
 51
89.99999999999994
  0
ARC
  5
11F9
330
1F
100
AcDbEntity
  8
0
100
AcDbCircle
 10
0.6249992999999999
 20
15.6249685
 30
0.0
 40
0.125
100
AcDbArc
 50
89.99999999999991
 51
180.0
  0
ARC
  5
11FA
330
1F
100
AcDbEntity
  8
0
100
AcDbCircle
 10
0.6249992999999999
 20
8.49998325
 30
0.0
 40
0.1250000000000001
100
AcDbArc
 50
180.0
 51
270.0
  0
ARC
  5
11FB
330
1F
100
AcDbEntity
  8
0
100
AcDbCircle
 10
3.6249922
 20
8.49998325
 30
0.0
 40
0.1250000000000001
100
AcDbArc
 50
270.0
 51
0.0
  0
ARC
  5
11FC
330
1F
100
AcDbEntity
  8
0
100
AcDbCircle
 10
0.6249992999999998
 20
7.999983749999998
 30
0.0
 40
0.125
100
AcDbArc
 50
90.00000000000006
 51
180.0
  0
ARC
  5
11FD
330
1F
100
AcDbEntity
  8
0
100
AcDbCircle
 10
3.6249922
 20
7.99998375
 30
0.0
 40
0.125
100
AcDbArc
 50
0.0
 51
90.00000000000006
  0
ARC
  5
11FE
330
1F
100
AcDbEntity
  8
0
100
AcDbCircle
 10
3.6249922
 20
0.8749985
 30
0.0
 40
0.125
100
AcDbArc
 50
269.9999999999999
 51
0.0000000000000127
  0
ARC
  5
11FF
330
1F
100
AcDbEntity
  8
0
100
AcDbCircle
 10
0.6249992999999998
 20
0.8749985000000018
 30
0.0
 40
0.125
100
AcDbArc
 50
180.0
 51
269.9999999999999
  0
ARC
  5
1200
330
1F
100
AcDbEntity
  8
0
100
AcDbCircle
 10
15.3749684
 20
15.6249685
 30
0.0
 40
0.125
100
AcDbArc
 50
0.0
 51
90.0000000000001
  0
ARC
  5
1201
330
1F
100
AcDbEntity
  8
0
100
AcDbCircle
 10
15.3749684
 20
8.49998325
 30
0.0
 40
0.1250000000000001
100
AcDbArc
 50
270.0
 51
0.0
  0
ARC
  5
1202
330
1F
100
AcDbEntity
  8
0
100
AcDbCircle
 10
15.3749684
 20
7.99998375
 30
0.0
 40
0.1250000000000001
100
AcDbArc
 50
0.0
 51
90.0
  0
ARC
  5
1203
330
1F
100
AcDbEntity
  8
0
100
AcDbCircle
 10
15.3749684
 20
0.8749985000000002
 30
0.0
 40
0.1250000000000001
100
AcDbArc
 50
270.0
 51
0.0
  0
ENDSEC
  0
SECTION
  2
OBJECTS
  0
DICTIONARY
  5
C
330
0
100
AcDbDictionary
  3
ACAD_DETAILVIEWSTYLE
350
122
  3
ACAD_GROUP
350
D
  3
ACAD_IMAGE_VARS
350
DC
  3
ACAD_MLINESTYLE
350
17
  3
ACAD_SCALELIST
350
B6
  3
ACAD_SECTIONVIEWSTYLE
350
123
  3
ACDBVARIABLEDICTIONARY
350
66
  3
ACSTSTANDARD
350
E8F
  3
APPDATA
350
E1
  3
DIMOFFSETDICTIONARY
350
E8A
  3
DWGPROPS
350
1204
  0
DICTIONARY
  5
122
102
{ACAD_REACTORS
330
C
102
}
330
C
100
AcDbDictionary
  0
DICTIONARY
  5
D
102
{ACAD_REACTORS
330
C
102
}
330
C
100
AcDbDictionary
  0
RASTERVARIABLES
  5
DC
102
{ACAD_REACTORS
330
C
102
}
330
C
100
AcDbRasterVariables
 90
        0
 70
     1
 71
     1
 72
     5
  0
DICTIONARY
  5
17
102
{ACAD_REACTORS
330
C
102
}
330
C
100
AcDbDictionary
  3
STANDARD
350
18
  0
DICTIONARY
  5
B6
102
{ACAD_REACTORS
330
C
102
}
330
C
100
AcDbDictionary
  0
DICTIONARY
  5
123
102
{ACAD_REACTORS
330
C
102
}
330
C
100
AcDbDictionary
  0
DICTIONARY
  5
66
102
{ACAD_REACTORS
330
C
102
}
330
C
100
AcDbDictionary
  3
DIMASSOC
350
67
  3
HIDETEXT
350
6B
  3
HPTRANSPARENCY
350
E89
  0
DICTIONARY
  5
E8F
102
{ACAD_REACTORS
330
C
102
}
330
C
100
AcDbDictionary
  0
DICTIONARY
  5
E1
102
{ACAD_REACTORS
330
C
102
}
330
C
100
AcDbDictionary
  0
DICTIONARY
  5
E8A
102
{ACAD_REACTORS
330
C
102
}
330
C
100
AcDbDictionary
  3
DIMRAILANGLE
350
E92
  3
DIMRAILFIRSTOFFSET
350
E90
  3
DIMRAILOFFSET
350
E91
  3
DIMRAILSENABLED
350
E93
  0
XRECORD
  5
1204
102
{ACAD_REACTORS
330
C
102
}
330
C
100
AcDbXrecord
  1
DWGPROPS COOKIE
  2

  3

  4

  6

  7

  8
Parker
  9

300
=
301
=
302
=
303
=
304
=
305
=
306
=
307
=
308
=
309
=
 40
0.0
 41
2452643.063384271
 42
2457668.807235104
  1

 90
        0
  0
MLINESTYLE
  5
18
102
{ACAD_REACTORS
330
17
102
}
330
17
100
AcDbMlineStyle
  2
STANDARD
 70
     0
  3

 62
   256
 51
90.0
 52
90.0
 71
     2
 49
0.5
 62
   256
  6
BYLAYER
 49
-0.5
 62
   256
  6
BYLAYER
  0
DICTIONARYVAR
  5
67
102
{ACAD_REACTORS
330
66
102
}
330
66
100
DictionaryVariables
280
     0
  1
2
  0
DICTIONARYVAR
  5
6B
102
{ACAD_REACTORS
330
66
102
}
330
66
100
DictionaryVariables
280
     0
  1
1
  0
DICTIONARYVAR
  5
E89
102
{ACAD_REACTORS
330
66
102
}
330
66
100
DictionaryVariables
280
     0
  1
ByLayer
  0
DICTIONARYVAR
  5
E92
102
{ACAD_REACTORS
330
E8A
102
}
330
E8A
100
DictionaryVariables
280
     0
  1
0.261799
  0
DICTIONARYVAR
  5
E90
102
{ACAD_REACTORS
330
E8A
102
}
330
E8A
100
DictionaryVariables
280
     0
  1
0.400000
  0
DICTIONARYVAR
  5
E91
102
{ACAD_REACTORS
330
E8A
102
}
330
E8A
100
DictionaryVariables
280
     0
  1
0.250000
  0
DICTIONARYVAR
  5
E93
102
{ACAD_REACTORS
330
E8A
102
}
330
E8A
100
DictionaryVariables
280
     0
  1
1
  0
ENDSEC
  0
EOF
